<svg width="144" height="76" viewBox="0 0 144 76" fill="none" xmlns="http://www.w3.org/2000/svg">
<path d="M19.332 75.8161H0L27.432 0H48.816L76.248 75.8161H56.7L52.164 62.4241H33.772L38.772 48.1681H47.412L38.016 20.412L19.332 75.8161Z" fill="#E5E5E5"/>
<path d="M93.304 75.8161L76.24 30.2401V49.5L57.772 0L79.588 0L110.385 75.8161H93.304Z" fill="#B21A23"/>
<path d="M19.332 75.8161H0L27.432 0H48.816L76.248 75.8161H56.7L52.164 62.4241H33.772L38.772 48.1681H47.412L38.016 20.412L19.332 75.8161Z" fill="#E5E5E5"/>
<path d="M143.632 0V75.8161H125.164V30.3481L114.059 60.1264L105.948 39.816L121.924 0H143.632Z" fill="#B21A23"/>
</svg>
